<svg width="33" height="37" viewBox="0 0 33 37" fill="none" xmlns="http://www.w3.org/2000/svg">
<path d="M27.5 14.167C27.5 10.3958 27.5 8.51014 26.3284 7.33857C25.1569 6.16699 23.2712 6.16699 19.5 6.16699H13.5C9.72876 6.16699 7.84315 6.16699 6.67157 7.33857C5.5 8.51014 5.5 10.3958 5.5 14.167V28.8337C5.5 29.7765 5.5 30.2479 5.79289 30.5408C6.08579 30.8337 6.55719 30.8337 7.5 30.8337H19.5C23.2712 30.8337 25.1569 30.8337 26.3284 29.6621C27.5 28.4905 27.5 26.6049 27.5 22.8337V14.167Z" stroke="white" stroke-width="2"/>
<path d="M12.375 15.417L20.625 15.417" stroke="white" stroke-width="2" stroke-linecap="round" stroke-linejoin="round"/>
<path d="M12.375 21.583H16.5" stroke="white" stroke-width="2" stroke-linecap="round" stroke-linejoin="round"/>
</svg>
