<svg width="41" height="39" viewBox="0 0 41 39" fill="none" xmlns="http://www.w3.org/2000/svg">
<path d="M26.4795 8.125C28.8788 8.125 30.0784 8.125 30.9402 8.67272C31.3133 8.90984 31.6336 9.21453 31.8828 9.5694C32.4587 10.3891 32.4587 11.5302 32.4587 13.8125V29.25C32.4587 32.3141 32.4587 33.8462 31.4579 34.7981C30.4572 35.75 28.8466 35.75 25.6253 35.75H15.3753C12.1541 35.75 10.5434 35.75 9.54271 34.7981C8.54199 33.8462 8.54199 32.3141 8.54199 29.25V13.8125C8.54199 11.5302 8.54199 10.3891 9.1178 9.5694C9.36708 9.21453 9.68739 8.90984 10.0605 8.67272C10.9222 8.125 12.1219 8.125 14.5212 8.125" stroke="white" stroke-width="2"/>
<path d="M15.375 8.125C15.375 6.33007 16.9047 4.875 18.7917 4.875H22.2083C24.0953 4.875 25.625 6.33007 25.625 8.125C25.625 9.91993 24.0953 11.375 22.2083 11.375H18.7917C16.9047 11.375 15.375 9.91993 15.375 8.125Z" stroke="white" stroke-width="2"/>
<path d="M15.375 19.5L25.625 19.5" stroke="white" stroke-width="2" stroke-linecap="round"/>
<path d="M15.375 26L22.2083 26" stroke="white" stroke-width="2" stroke-linecap="round"/>
</svg>
